<?xml version="1.0"?>
<svg xmlns="http://www.w3.org/2000/svg" xmlns:xlink="http://www.w3.org/1999/xlink" version="1.1" id="Layer_1" x="0px" y="0px" viewBox="0 0 300 300" style="enable-background:new 0 0 300 300;" xml:space="preserve" width="512px" height="512px" class=""><g><g>
	<g>
		<g>
			<polygon points="127.591,119.253 114.333,132.511 136.739,154.917 114.333,177.323 127.591,190.582 149.997,168.176      172.403,190.582 185.662,177.323 163.256,154.917 185.662,132.511 172.403,119.253 149.997,141.659    " data-original="#000000" class="active-path" data-old_color="#000000" fill="#D15B66"/>
			<path d="M149.997,0C67.158,0,0.003,67.161,0.003,149.997S67.158,300,149.997,300s150-67.163,150-150.003S232.837,0,149.997,0z      M150,232.886c-77.185,0-82.683-130.592-82.683-130.592l82.681-35.187H150l82.681,35.187     C232.681,102.296,227.183,232.886,150,232.886z" data-original="#000000" class="active-path" data-old_color="#000000" fill="#D15B66"/>
		</g>
	</g>
</g></g> </svg>
