<?xml version="1.0"?>
<svg xmlns="http://www.w3.org/2000/svg" height="512px" viewBox="0 0 192 192" width="512px"><g><path d="m96 0a96 96 0 1 0 96 96 96.108 96.108 0 0 0 -96-96zm11.314 96 50.6-50.6a79.82 79.82 0 0 1 0 101.2zm39.286-61.913-50.6 50.599-50.6-50.6a79.82 79.82 0 0 1 101.2 0zm-112.513 11.313 50.599 50.6-50.6 50.6a79.82 79.82 0 0 1 0-101.2zm11.313 112.513 50.6-50.6 50.6 50.6a79.82 79.82 0 0 1 -101.2 0z" data-original="#000000" class="active-path" data-old_color="#000000" fill="#5CA5C3"/></g> </svg>
