<?xml version="1.0"?>
<svg xmlns="http://www.w3.org/2000/svg" xmlns:xlink="http://www.w3.org/1999/xlink" version="1.1" id="Layer_1" x="0px" y="0px" viewBox="0 0 300 300" style="enable-background:new 0 0 300 300;" xml:space="preserve" width="512px" height="512px"><g><g>
	<g>
		<g>
			<path d="M150,225.105c39.749,0,58.545-40.546,67.35-75.105H150V225.105z" data-original="#000000" class="active-path" data-old_color="#000000" fill="#37A2DA"/>
			<path d="M82.681,149.992H150v-74.43l-74.527,31.717C76.179,115.404,78.057,131.876,82.681,149.992z" data-original="#000000" class="active-path" data-old_color="#000000" fill="#37A2DA"/>
			<path d="M149.997,0C67.158,0,0.003,67.161,0.003,149.997S67.158,300,149.997,300s150-67.163,150-150.003S232.837,0,149.997,0z      M240.454,102.62c-0.236,5.636-6.774,138.046-90.454,138.046c-83.682,0-90.22-132.408-90.456-138.046l-0.226-5.379l90.68-38.593     l90.685,38.593L240.454,102.62z" data-original="#000000" class="active-path" data-old_color="#000000" fill="#37A2DA"/>
		</g>
	</g>
</g></g> </svg>
