<?xml version="1.0"?>
<svg xmlns="http://www.w3.org/2000/svg" id="Layer_1" height="512px" viewBox="0 0 512 512" width="512px" data-name="Layer 1" class=""><g><path d="m165.65 281v-97.842l99.83-49.384-9.48-4.658-100.35 49.145v95.909c0 21.52 15.035 49.952 32.83 62.085l3.247 2.214c-14.706-14.214-26.077-38.479-26.077-57.469z" fill="#d4e1f4" data-original="#D4E1F4"/><path d="m447.249 197.572a6 6 0 0 0 -10.035 0l-53.769 81.983a6 6 0 0 0 5.018 9.29h45.867a188.8 188.8 0 0 1 -64.314 117.64c-33.183 28.453-74.868 44.771-114.366 44.771-25.76 0-52.694-6.944-77.89-20.081a193.577 193.577 0 0 1 -66.346-56.909 6 6 0 0 0 -9.682 7.091 205.629 205.629 0 0 0 70.48 60.458c26.9 14.027 55.754 21.441 83.438 21.441 42.321 0 86.852-17.372 122.176-47.661a200.771 200.771 0 0 0 68.606-126.75h49.568a6 6 0 0 0 5.018-9.29zm-47.676 79.273 42.658-65.045 42.659 65.042z" fill="#0635c9" data-original="#0635C9" class="" style="fill:#286BFF" data-old_color="#0635c9"/><path d="m64.751 314.428a6 6 0 0 0 10.035 0l53.769-81.983a6 6 0 0 0 -5.018-9.29h-45.867a188.8 188.8 0 0 1 64.314-117.64c33.183-28.453 74.868-44.771 114.366-44.771 25.76 0 52.694 6.944 77.89 20.081a193.577 193.577 0 0 1 66.346 56.909 6 6 0 0 0 9.682-7.091 205.629 205.629 0 0 0 -70.48-60.458c-26.9-14.027-55.754-21.441-83.438-21.441-42.321 0-86.852 17.372-122.176 47.661a200.771 200.771 0 0 0 -68.606 126.75h-49.568a6 6 0 0 0 -5.018 9.29zm47.676-79.273-42.658 65.045-42.659-65.045z" fill="#0635c9" data-original="#0635C9" class="" style="fill:#286BFF" data-old_color="#0635c9"/><g fill="#1ae5be"><path d="m368.35 274.17v-99.5a6 6 0 0 0 -3.35-5.388l-106.354-52.234a6 6 0 0 0 -5.285 0l-106.349 52.082a6 6 0 0 0 -3.362 5.389v99.651c0 25.819 16.723 57.445 38.07 72l70.9 48.354a6 6 0 0 0 6.762 0l70.9-48.354c21.345-14.555 38.068-46.181 38.068-72zm-112.35 108.13-67.52-46.049c-17.795-12.133-32.83-40.565-32.83-62.085v-95.905l100.35-49.145 100.35 49.289v95.765c0 21.892-14.728 49.743-32.831 62.086z" data-original="#000000" class="active-path" style="fill:#5C9EFE" data-old_color="#000000"/><path d="m296.809 223.455-53.685 52.412-27.933-27.267a6 6 0 0 0 -8.382 8.586l32.124 31.363a6 6 0 0 0 8.382 0l57.876-56.5a6 6 0 1 0 -8.382-8.586z" data-original="#000000" class="active-path" style="fill:#5C9EFE" data-old_color="#000000"/></g></g> </svg>
